<?xml version="1.0" encoding="UTF-8"?>
<svg xmlns="http://www.w3.org/2000/svg" xmlns:xlink="http://www.w3.org/1999/xlink" width="150px" height="150px" viewBox="0 0 150 150" version="1.1">
<g id="surface1">
<path style="fill:none;stroke-width:4;stroke-linecap:round;stroke-linejoin:round;stroke:rgb(0%,45.882353%,100%);stroke-opacity:1;stroke-miterlimit:4;" d="M 30.23673 17.729381 L 8.653909 17.729381 C 6.949846 17.729381 5.569377 19.109851 5.569377 20.813914 L 5.569377 31.605324 C 5.569377 33.309387 6.949846 34.689856 8.653909 34.689856 L 30.23673 34.689856 C 31.940793 34.689856 33.321262 33.309387 33.321262 31.605324 L 33.321262 20.813914 C 33.321262 19.109851 31.940793 17.729381 30.23673 17.729381 Z M 30.23673 17.729381 " transform="matrix(3.947367,0,0,3.947367,0,0)"/>
<path style="fill:none;stroke-width:4;stroke-linecap:round;stroke-linejoin:round;stroke:rgb(0%,45.882353%,100%);stroke-opacity:1;stroke-miterlimit:4;" d="M 11.738442 17.729381 L 11.738442 11.563285 C 11.735473 9.65141 12.445004 7.807815 13.724536 6.388752 C 15.007037 4.969689 16.770475 4.079064 18.670475 3.886095 C 20.573445 3.696095 22.479383 4.215627 24.017196 5.349689 C 25.557978 6.483752 26.620791 8.149222 27.000791 10.022504 L 27.000791 17.729381 " transform="matrix(3.947367,0,0,3.947367,0,0)"/>
</g>
</svg>
